{"title":"Mai.Dire.Grande.Fratello.Show.2009.1x07.DVB-TRip.MP3.iTA.XviD.fi","uid":5155857,"size":1171220480,"categoryP":"video","categoryS":"tv_shows","magnet":"?xt=urn:btih:8a731c4d4580fc1dfb07adf46ff9fc5b99400244&amp;dn=Mai.Dire.Grande.Fratello.Show.2009.1x07.DVB-TRip.MP3.iTA.XviD.fi&amp;tr=udp%3A%2F%2Ftracker.openbittorrent.com%3A80&amp;tr=udp%3A%2F%2Fopen.demonii.com%3A1337&amp;tr=udp%3A%2F%2Ftracker.coppersurfer.tk%3A6969&amp;tr=udp%3A%2F%2Fexodus.desync.com%3A6969","seeders":0,"leechers":1,"uploader":null,"files":1,"time":1257846401,"description":"Taken from http://forum.tntvillage.scambioetico.org/tntforum/index.php?showtopic=166856\n\n\nGeneral\nComplete name                    : Mai.Dire.Grande.Fratello.Show.2009.1x07.DVB-TRip.MP3.iTA.XviD.firefox.avi\nFormat                           : AVI\nFormat/Info                      : Audio Video Interleave\nFile size                        : 1.09 GiB\nDuration                         : 1h 27mn\nOverall bit rate                 : 1 789 Kbps\nWriting application              : VirtualDubMod 1.5.10.2 (build 2540/release)\nWriting library                  : VirtualDubMod build 2540/release\n\nVideo\nID                               : 0\nFormat                           : MPEG-4 Visual\nFormat profile                   : AdvancedSimple@L5\nFormat settings, BVOP            : Yes\nFormat settings, QPel            : No\nFormat settings, GMC             : No warppoints\nFormat settings, Matrix          : Default (MPEG)\nCodec ID                         : XVID\nCodec ID/Hint                    : XviD\nDuration                         : 1h 27mn\nBit rate                         : 1 650 Kbps\nWidth                            : 500 pixels\nHeight                           : 364 pixels\nDisplay aspect ratio             : 1.374\nFrame rate                       : 25.000 fps\nResolution                       : 24 bits\nColorimetry                      : 4:2:0\nScan type                        : Progressive\nBits/(Pixel*Frame)               : 0.363\nStream size                      : 1.01 GiB (92%)\nWriting library                  : XviD 1.2.1 (UTC 2008-12-04)\n\nAudio\nID                               : 1\nFormat                           : MPEG Audio\nFormat version                   : Version 1\nFormat profile                   : Layer 3\nCodec ID                         : 55\nCodec ID/Hint                    : MP3\nDuration                         : 1h 27mn\nBit rate mode                    : Variable\nBit rate                         : 128 Kbps\nChannel(s)                       : 2 channels\nSampling rate                    : 48.0 KHz\nResolution                       : 16 bits\nStream size                      : 78.7 MiB (7%)\nAlignment                        : Aligned on interleaves\nInterleave, duration             : 24 ms (0.60 video frame)\nInterleave, preload duration     : 441 ms\n\n","torrent":{"xt":"urn:btih:8a731c4d4580fc1dfb07adf46ff9fc5b99400244","amp;dn":"Mai.Dire.Grande.Fratello.Show.2009.1x07.DVB-TRip.MP3.iTA.XviD.fi","amp;tr":["udp%3A%2F%2Ftracker.openbittorrent.com%3A80","udp%3A%2F%2Fopen.demonii.com%3A1337","udp%3A%2F%2Ftracker.coppersurfer.tk%3A6969","udp%3A%2F%2Fexodus.desync.com%3A6969"],"infoHash":"8a731c4d4580fc1dfb07adf46ff9fc5b99400244","infoHashBuffer":{"type":"Buffer","data":[138,115,28,77,69,128,252,29,251,7,173,244,111,249,252,91,153,64,2,68]},"announce":[],"urlList":[]}}